<?xml version="1.0" encoding="UTF-8"?>
<svg width="490px" height="221px" viewBox="0 0 490 221" version="1.1" xmlns="http://www.w3.org/2000/svg" xmlns:xlink="http://www.w3.org/1999/xlink">
    <!-- Generator: Sketch 64 (93537) - https://sketch.com -->
    <title>Combined Shape Copy</title>
    <desc>Created with Sketch.</desc>
    <g id="Page-1" stroke="none" stroke-width="1" fill="none" fill-rule="evenodd">
        <path d="M1.54185338,2.52469184 C17.5340783,26.9008561 34.7789972,49.8569886 53.0635307,71.3104155 C83.1329557,82.5453322 114.074193,91.2210719 145.896086,97.5119248 C154.826932,117.251663 164.29421,135.271527 173.950908,151.096262 C174.133621,151.39568 174.317064,151.695398 174.501236,151.99541 C174.153161,151.948828 173.804121,151.900544 173.455121,151.851932 C156.158784,149.442751 138.985174,146.232995 121.985321,142.252029 C133.831867,152.322827 145.941267,161.857565 158.274638,170.835299 C169.448631,173.588567 180.702397,176.000798 192.331107,178.254849 C208.297877,199.311787 224.172534,213.681935 238.548204,219.256938 C226.776549,198.141261 216.240432,174.088598 207.758718,147.984566 C197.782404,117.280627 191.77369,87.2020547 189.506569,59.6964815 L189.428872,58.7648529 C119.225883,51.7881618 54.9234734,31.8626805 1.54185338,2.52469184 Z M487.290659,3.52877307 C433.966162,32.4789163 369.910415,52.0888133 300.046848,58.8722689 C297.82649,86.6011541 291.797788,116.9739 281.721812,147.984566 C273.240076,174.088666 262.703934,198.141371 251.035197,219.220068 L251.0352,219.220062 C265.307215,213.682247 281.187801,199.308893 297.458138,178.065064 C308.776054,176.001177 320.027767,173.589453 331.198415,170.838192 C343.53626,161.859871 355.648541,152.323008 367.495254,142.238297 L366.985461,142.358796 C350.155192,146.296491 333.150455,149.46661 316.025409,151.851932 C315.677348,151.900413 315.329245,151.948568 314.981103,151.996399 C315.162282,151.697331 315.34632,151.396646 315.529622,151.096262 C325.18632,135.271527 334.653598,117.251663 343.946231,97.2268964 C375.402491,91.221806 406.340011,82.547453 436.406418,71.3184909 C454.446399,50.1566763 471.470514,27.5341661 487.290659,3.52877307 Z" id="Combined-Shape-Copy" stroke="#979797" fill="#fff"></path>
    </g>
</svg>
